<svg xmlns="http://www.w3.org/2000/svg" width="481pt" height="291pt" viewBox="0 0 481 291" version="1.1" xmlns:xlink="http://www.w3.org/1999/xlink">
  <g id="surface2" transform="matrix(1,0,0,1,0,0)" data-tpl_matrix="1,0,0,1,0,0">
    <path style="stroke:none;fill-rule:evenodd;fill:rgb(64.705882%,61.176471%,53.333333%);fill-opacity:1" d="M 240.351562 37.449219 C 234.148438 37.449219 228.066406 38.398438 222.101562 40.300781 C 202.832031 46.433594 183.515625 52.617188 164.148438 58.851562 C 144.816406 65.082031 125.683594 71.285156 106.75 77.449219 L 86.949219 83.851562 C 83.351562 85.050781 80.214844 86.867188 77.550781 89.300781 C 74.882812 91.765625 72.800781 94.667969 71.300781 98 C 69.832031 101.332031 69.082031 104.917969 69.050781 108.75 C 69.050781 132.050781 69.050781 155.367188 69.050781 178.699219 C 69.082031 182.566406 69.851562 186.183594 71.351562 189.550781 C 72.851562 192.917969 74.933594 195.832031 77.601562 198.300781 C 80.300781 200.765625 83.449219 202.601562 87.050781 203.800781 L 102.601562 208.800781 C 122.199219 215.167969 142 221.582031 162 228.050781 C 182.035156 234.515625 202.015625 240.933594 221.949219 247.300781 C 228.050781 249.234375 234.167969 250.199219 240.300781 250.199219 C 246.464844 250.234375 252.515625 249.316406 258.449219 247.449219 C 278.851562 240.984375 299.285156 234.433594 319.75 227.800781 C 340.214844 221.167969 360.464844 214.601562 380.5 208.101562 L 394.398438 203.550781 C 397.867188 202.417969 400.898438 200.632812 403.5 198.199219 C 406.132812 195.734375 408.183594 192.851562 409.648438 189.550781 C 411.117188 186.25 411.867188 182.734375 411.898438 179 C 411.933594 170.832031 411.933594 162.667969 411.898438 154.5 L 411.898438 109.351562 C 411.898438 105.214844 411.148438 101.449219 409.648438 98.050781 C 408.183594 94.617188 406.050781 91.667969 403.25 89.199219 C 400.484375 86.765625 397.132812 84.898438 393.199219 83.601562 C 381.632812 79.867188 370.066406 76.117188 358.5 72.351562 C 342.367188 67.117188 326.066406 61.851562 309.601562 56.550781 C 293.132812 51.214844 276.683594 45.917969 260.25 40.648438 C 253.582031 38.515625 246.949219 37.449219 240.351562 37.449219 M 240.601562 256.25 C 233.734375 256.214844 226.917969 255.132812 220.148438 253 C 200.183594 246.632812 180.199219 240.214844 160.199219 233.75 C 140.167969 227.285156 120.351562 220.867188 100.75 214.5 L 85.199219 209.5 C 80.765625 208.035156 76.898438 205.785156 73.601562 202.75 C 70.265625 199.714844 67.683594 196.132812 65.851562 192 C 64.015625 187.867188 63.082031 183.433594 63.050781 178.699219 C 63.050781 155.367188 63.050781 132.050781 63.050781 108.75 C 63.082031 104.015625 64.015625 99.617188 65.851562 95.550781 C 67.683594 91.449219 70.25 87.882812 73.550781 84.851562 C 76.851562 81.851562 80.699219 79.617188 85.101562 78.148438 L 104.898438 71.75 C 123.832031 65.582031 142.984375 59.382812 162.351562 53.148438 C 181.683594 46.882812 201 40.683594 220.300781 34.550781 C 227.035156 32.417969 233.917969 31.382812 240.949219 31.449219 C 247.984375 31.515625 255.035156 32.683594 262.101562 34.949219 C 278.5 40.214844 294.949219 45.515625 311.449219 50.851562 C 327.917969 56.148438 344.214844 61.417969 360.351562 66.648438 C 371.917969 70.417969 383.484375 74.167969 395.050781 77.898438 C 399.785156 79.433594 403.851562 81.734375 407.25 84.800781 C 410.648438 87.832031 413.265625 91.433594 415.101562 95.601562 C 416.964844 99.800781 417.898438 104.382812 417.898438 109.351562 L 417.898438 154.5 C 417.933594 162.699219 417.933594 170.867188 417.898438 179 C 417.867188 183.601562 416.933594 187.933594 415.101562 192 C 413.300781 196.066406 410.785156 199.617188 407.550781 202.648438 C 404.285156 205.648438 400.515625 207.867188 396.25 209.300781 L 382.351562 213.800781 C 362.316406 220.332031 342.066406 226.898438 321.601562 233.5 C 301.132812 240.132812 280.683594 246.683594 260.25 253.148438 C 253.816406 255.214844 247.265625 256.25 240.601562 256.25 "/>
    <path style="stroke:none;fill-rule:evenodd;fill:rgb(0.000000%,0.000000%,0.000000%);fill-opacity:1" d="M 405.050781 143.949219 C 405.050781 154.449219 405.050781 164.949219 405.050781 175.449219 C 405.015625 179.183594 404.234375 182.699219 402.699219 186 C 401.167969 189.300781 399.015625 192.183594 396.25 194.648438 C 393.484375 197.082031 390.25 198.898438 386.550781 200.101562 C 365.183594 206.699219 343.816406 213.300781 322.449219 219.898438 C 301.082031 226.464844 279.699219 233 258.300781 239.5 C 252.332031 241.265625 246.300781 242.132812 240.199219 242.101562 C 234.132812 242.066406 228.117188 241.148438 222.148438 239.351562 C 179.683594 226.382812 137.25 213.351562 94.851562 200.25 C 91.015625 199.050781 87.683594 197.214844 84.851562 194.75 C 82.015625 192.285156 79.832031 189.367188 78.300781 186 C 76.734375 182.667969 75.933594 179.066406 75.898438 175.199219 C 75.898438 154.234375 75.898438 133.285156 75.898438 112.351562 C 75.933594 108.550781 76.734375 104.984375 78.300781 101.648438 C 79.832031 98.316406 82.015625 95.417969 84.851562 92.949219 C 87.648438 90.484375 90.949219 88.648438 94.75 87.449219 C 137.25 74.316406 179.765625 61.285156 222.300781 48.351562 C 228.535156 46.449219 234.816406 45.550781 241.148438 45.648438 C 247.484375 45.75 253.765625 46.75 260 48.648438 C 301.832031 61.484375 343.648438 74.351562 385.449219 87.25 C 389.515625 88.515625 393.015625 90.382812 395.949219 92.851562 C 398.851562 95.316406 401.082031 98.265625 402.648438 101.699219 C 404.25 105.101562 405.050781 108.832031 405.050781 112.898438 C 405.050781 123.234375 405.050781 133.582031 405.050781 143.949219 "/>
    <path style="stroke:none;fill-rule:evenodd;fill:rgb(64.705882%,61.176471%,53.333333%);fill-opacity:1" d="M 388.800781 167.800781 L 244.449219 167.800781 L 240.5 163.851562 L 236.550781 167.800781 L 92.148438 167.800781 L 92.148438 169.148438 L 236.550781 169.148438 L 240.5 173.101562 L 244.449219 169.148438 L 388.800781 169.148438 L 388.800781 167.800781 "/>
    <path style="stroke:none;fill-rule:evenodd;fill:rgb(100.000000%,100.000000%,100.000000%);fill-opacity:1" d="M15.180000-5.500000L15.180000-5.500000L15.180000-7.920000L18.260000-7.920000L18.260000-5.500000L18.260000-5.500000Q18.260000-2.552000 16.456000-0.946000L16.456000-0.946000L16.456000-0.946000Q14.652000 0.660000 11.044000 0.660000L11.044000 0.660000L11.044000 0.660000Q7.436000 0.660000 5.588000-0.946000L5.588000-0.946000L5.588000-0.946000Q3.740000-2.552000 3.740000-5.500000L3.740000-5.500000L3.740000-23.100000L3.740000-23.100000Q3.740000-26.048000 5.544000-27.654000L5.544000-27.654000L5.544000-27.654000Q7.348000-29.260000 10.956000-29.260000L10.956000-29.260000L10.956000-29.260000Q14.564000-29.260000 16.412000-27.654000L16.412000-27.654000L16.412000-27.654000Q18.260000-26.048000 18.260000-23.100000L18.260000-23.100000L18.260000-18.920000L15.180000-18.920000L15.180000-23.100000L15.180000-23.100000Q15.180000-26.620000 11-26.620000L11-26.620000L11-26.620000Q6.820000-26.620000 6.820000-23.100000L6.820000-23.100000L6.820000-5.500000L6.820000-5.500000Q6.820000-1.980000 11-1.980000L11-1.980000L11-1.980000Q15.180000-1.980000 15.180000-5.500000ZM37.092000 0L25.960000 0L25.960000-28.600000L29.040000-28.600000L29.040000-2.640000L37.092000-2.640000L37.092000 0ZM53.152000-5.500000L53.152000-5.500000L53.152000-7.920000L56.232000-7.920000L56.232000-5.500000L56.232000-5.500000Q56.232000-2.552000 54.428000-0.946000L54.428000-0.946000L54.428000-0.946000Q52.624000 0.660000 49.016000 0.660000L49.016000 0.660000L49.016000 0.660000Q45.408000 0.660000 43.560000-0.946000L43.560000-0.946000L43.560000-0.946000Q41.712000-2.552000 41.712000-5.500000L41.712000-5.500000L41.712000-23.100000L41.712000-23.100000Q41.712000-26.048000 43.516000-27.654000L43.516000-27.654000L43.516000-27.654000Q45.320000-29.260000 48.928000-29.260000L48.928000-29.260000L48.928000-29.260000Q52.536000-29.260000 54.384000-27.654000L54.384000-27.654000L54.384000-27.654000Q56.232000-26.048000 56.232000-23.100000L56.232000-23.100000L56.232000-13.420000L44.792000-13.420000L44.792000-5.500000L44.792000-5.500000Q44.792000-1.980000 48.972000-1.980000L48.972000-1.980000L48.972000-1.980000Q53.152000-1.980000 53.152000-5.500000ZM44.792000-23.100000L44.792000-23.100000L44.792000-16.060000L53.152000-16.060000L53.152000-23.100000L53.152000-23.100000Q53.152000-26.620000 48.972000-26.620000L48.972000-26.620000L48.972000-26.620000Q44.792000-26.620000 44.792000-23.100000ZM78.012000-23.100000L78.012000 0L76.692000 0L75.548000-2.816000L75.548000-2.816000Q74.624000-1.232000 73.128000-0.286000L73.128000-0.286000L73.128000-0.286000Q71.632000 0.660000 69.828000 0.660000L69.828000 0.660000L69.828000 0.660000Q63.492000 0.660000 63.492000-5.500000L63.492000-5.500000L63.492000-9.900000L63.492000-9.900000Q63.492000-16.060000 69.828000-16.060000L69.828000-16.060000L74.932000-16.060000L74.932000-23.276000L74.932000-23.276000Q74.932000-24.860000 73.920000-25.740000L73.920000-25.740000L73.920000-25.740000Q72.908000-26.620000 70.928000-26.620000L70.928000-26.620000L70.928000-26.620000Q67.012000-26.620000 67.012000-23.276000L67.012000-23.276000L67.012000-20.680000L63.932000-20.680000L63.932000-23.100000L63.932000-23.100000Q63.932000-26.048000 65.670000-27.654000L65.670000-27.654000L65.670000-27.654000Q67.408000-29.260000 70.928000-29.260000L70.928000-29.260000L70.928000-29.260000Q74.448000-29.260000 76.230000-27.654000L76.230000-27.654000L76.230000-27.654000Q78.012000-26.048000 78.012000-23.100000L78.012000-23.100000ZM74.932000-6.248000L74.932000-13.420000L69.828000-13.420000L69.828000-13.420000Q67.980000-13.420000 67.276000-12.496000L67.276000-12.496000L67.276000-12.496000Q66.572000-11.572000 66.572000-9.900000L66.572000-9.900000L66.572000-5.500000L66.572000-5.500000Q66.572000-3.828000 67.276000-2.904000L67.276000-2.904000L67.276000-2.904000Q67.980000-1.980000 69.828000-1.980000L69.828000-1.980000L69.828000-1.980000Q71.676000-1.980000 73.260000-3.410000L73.260000-3.410000L73.260000-3.410000Q74.844000-4.840000 74.932000-6.248000L74.932000-6.248000ZM89.452000-22.220000L89.452000 0L86.372000 0L86.372000-28.600000L87.692000-28.600000L88.792000-25.740000L88.792000-25.740000Q90.904000-29.260000 94.644000-29.260000L94.644000-29.260000L94.644000-29.260000Q101.112000-29.260000 101.112000-23.100000L101.112000-23.100000L101.112000 0L98.032000 0L98.032000-23.100000L98.032000-23.100000Q98.032000-24.772000 97.306000-25.696000L97.306000-25.696000L97.306000-25.696000Q96.580000-26.620000 94.644000-26.620000L94.644000-26.620000L94.644000-26.620000Q92.708000-26.620000 91.080000-25.124000L91.080000-25.124000L91.080000-25.124000Q89.452000-23.628000 89.452000-22.220000L89.452000-22.220000ZM133.584000-5.500000L133.584000-5.500000L133.584000-5.500000Q133.584000 0.660000 126.148000 0.660000L126.148000 0.660000L126.148000 0.660000Q118.712000 0.660000 118.712000-5.500000L118.712000-5.500000L118.712000-9.240000L121.792000-9.240000L121.792000-5.324000L121.792000-5.324000Q121.792000-3.740000 122.892000-2.860000L122.892000-2.860000L122.892000-2.860000Q123.992000-1.980000 126.148000-1.980000L126.148000-1.980000L126.148000-1.980000Q128.304000-1.980000 129.404000-2.860000L129.404000-2.860000L129.404000-2.860000Q130.504000-3.740000 130.504000-5.258000L130.504000-5.258000L130.504000-5.258000Q130.504000-6.776000 130.174000-7.678000L130.174000-7.678000L130.174000-7.678000Q129.844000-8.580000 128.832000-9.592000L128.832000-9.592000L121.088000-17.160000L121.088000-17.160000Q119.724000-18.524000 119.218000-19.822000L119.218000-19.822000L119.218000-19.822000Q118.712000-21.120000 118.712000-23.100000L118.712000-23.100000L118.712000-23.100000Q118.712000-26.048000 120.538000-27.654000L120.538000-27.654000L120.538000-27.654000Q122.364000-29.260000 126.060000-29.260000L126.060000-29.260000L126.060000-29.260000Q133.144000-29.260000 133.144000-23.100000L133.144000-23.100000L133.144000-19.360000L130.064000-19.360000L130.064000-23.276000L130.064000-23.276000Q130.064000-24.860000 129.030000-25.740000L129.030000-25.740000L129.030000-25.740000Q127.996000-26.620000 125.928000-26.620000L125.928000-26.620000L125.928000-26.620000Q123.860000-26.620000 122.826000-25.740000L122.826000-25.740000L122.826000-25.740000Q121.792000-24.860000 121.792000-23.320000L121.792000-23.320000L121.792000-23.320000Q121.792000-21.780000 122.100000-20.900000L122.100000-20.900000L122.100000-20.900000Q122.408000-20.020000 123.464000-19.052000L123.464000-19.052000L131.340000-11.484000L131.340000-11.484000Q132.616000-10.076000 133.100000-8.778000L133.100000-8.778000L133.100000-8.778000Q133.584000-7.480000 133.584000-5.500000ZM140.844000-5.060000L140.844000-28.600000L150.524000-28.600000L150.524000-25.960000L143.924000-25.960000L143.924000-4.884000L143.924000-4.884000Q143.924000-3.652000 144.562000-2.816000L144.562000-2.816000L144.562000-2.816000Q145.200000-1.980000 146.366000-1.980000L146.366000-1.980000L146.366000-1.980000Q147.532000-1.980000 148.148000-2.794000L148.148000-2.794000L148.148000-2.794000Q148.764000-3.608000 148.764000-4.884000L148.764000-4.884000L148.764000-10.120000L151.844000-10.120000L151.844000-5.060000L151.844000-5.060000Q151.844000-2.288000 150.370000-0.814000L150.370000-0.814000L150.370000-0.814000Q148.896000 0.660000 146.388000 0.660000L146.388000 0.660000L146.388000 0.660000Q143.880000 0.660000 142.362000-0.814000L142.362000-0.814000L142.362000-0.814000Q140.844000-2.288000 140.844000-5.060000L140.844000-5.060000ZM161.084000-20.108000L161.084000 0L158.004000 0L158.004000-28.600000L159.324000-28.600000L160.600000-25.344000L160.600000-25.344000Q162.008000-29.260000 165.088000-29.260000L165.088000-29.260000L165.088000-29.260000Q170.324000-29.260000 170.324000-23.540000L170.324000-23.540000L170.324000-20.680000L167.376000-20.680000L167.376000-23.716000L167.376000-23.716000Q167.376000-26.620000 164.956000-26.620000L164.956000-26.620000L164.956000-26.620000Q163.504000-26.620000 162.294000-24.948000L162.294000-24.948000L162.294000-24.948000Q161.084000-23.276000 161.084000-20.108000L161.084000-20.108000ZM186.384000-5.500000L186.384000-5.500000L186.384000-7.920000L189.464000-7.920000L189.464000-5.500000L189.464000-5.500000Q189.464000-2.552000 187.660000-0.946000L187.660000-0.946000L187.660000-0.946000Q185.856000 0.660000 182.248000 0.660000L182.248000 0.660000L182.248000 0.660000Q178.640000 0.660000 176.792000-0.946000L176.792000-0.946000L176.792000-0.946000Q174.944000-2.552000 174.944000-5.500000L174.944000-5.500000L174.944000-23.100000L174.944000-23.100000Q174.944000-26.048000 176.748000-27.654000L176.748000-27.654000L176.748000-27.654000Q178.552000-29.260000 182.160000-29.260000L182.160000-29.260000L182.160000-29.260000Q185.768000-29.260000 187.616000-27.654000L187.616000-27.654000L187.616000-27.654000Q189.464000-26.048000 189.464000-23.100000L189.464000-23.100000L189.464000-13.420000L178.024000-13.420000L178.024000-5.500000L178.024000-5.500000Q178.024000-1.980000 182.204000-1.980000L182.204000-1.980000L182.204000-1.980000Q186.384000-1.980000 186.384000-5.500000ZM178.024000-23.100000L178.024000-23.100000L178.024000-16.060000L186.384000-16.060000L186.384000-23.100000L186.384000-23.100000Q186.384000-26.620000 182.204000-26.620000L182.204000-26.620000L182.204000-26.620000Q178.024000-26.620000 178.024000-23.100000ZM211.244000-23.100000L211.244000 0L209.924000 0L208.780000-2.816000L208.780000-2.816000Q207.856000-1.232000 206.360000-0.286000L206.360000-0.286000L206.360000-0.286000Q204.864000 0.660000 203.060000 0.660000L203.060000 0.660000L203.060000 0.660000Q196.724000 0.660000 196.724000-5.500000L196.724000-5.500000L196.724000-9.900000L196.724000-9.900000Q196.724000-16.060000 203.060000-16.060000L203.060000-16.060000L208.164000-16.060000L208.164000-23.276000L208.164000-23.276000Q208.164000-24.860000 207.152000-25.740000L207.152000-25.740000L207.152000-25.740000Q206.140000-26.620000 204.160000-26.620000L204.160000-26.620000L204.160000-26.620000Q200.244000-26.620000 200.244000-23.276000L200.244000-23.276000L200.244000-20.680000L197.164000-20.680000L197.164000-23.100000L197.164000-23.100000Q197.164000-26.048000 198.902000-27.654000L198.902000-27.654000L198.902000-27.654000Q200.640000-29.260000 204.160000-29.260000L204.160000-29.260000L204.160000-29.260000Q207.680000-29.260000 209.462000-27.654000L209.462000-27.654000L209.462000-27.654000Q211.244000-26.048000 211.244000-23.100000L211.244000-23.100000ZM208.164000-6.248000L208.164000-13.420000L203.060000-13.420000L203.060000-13.420000Q201.212000-13.420000 200.508000-12.496000L200.508000-12.496000L200.508000-12.496000Q199.804000-11.572000 199.804000-9.900000L199.804000-9.900000L199.804000-5.500000L199.804000-5.500000Q199.804000-3.828000 200.508000-2.904000L200.508000-2.904000L200.508000-2.904000Q201.212000-1.980000 203.060000-1.980000L203.060000-1.980000L203.060000-1.980000Q204.908000-1.980000 206.492000-3.410000L206.492000-3.410000L206.492000-3.410000Q208.076000-4.840000 208.164000-6.248000L208.164000-6.248000ZM222.684000-22.352000L222.684000 0L219.604000 0L219.604000-28.600000L220.924000-28.600000L222.024000-25.784000L222.024000-25.784000Q222.948000-27.368000 224.444000-28.314000L224.444000-28.314000L224.444000-28.314000Q225.940000-29.260000 227.700000-29.260000L227.700000-29.260000L227.700000-29.260000Q232.144000-29.260000 233.376000-26.048000L233.376000-26.048000L233.376000-26.048000Q235.488000-29.260000 238.920000-29.260000L238.920000-29.260000L238.920000-29.260000Q245.124000-29.260000 245.124000-23.100000L245.124000-23.100000L245.124000 0L242.044000 0L242.044000-23.100000L242.044000-23.100000Q242.044000-26.620000 238.876000-26.620000L238.876000-26.620000L238.876000-26.620000Q237.028000-26.620000 235.466000-25.124000L235.466000-25.124000L235.466000-25.124000Q233.904000-23.628000 233.904000-22.220000L233.904000-22.220000L233.904000 0L230.824000 0L230.824000-23.100000L230.824000-23.100000Q230.824000-26.620000 227.656000-26.620000L227.656000-26.620000L227.656000-26.620000Q225.808000-26.620000 224.246000-25.190000L224.246000-25.190000L224.246000-25.190000Q222.684000-23.760000 222.684000-22.352000L222.684000-22.352000ZM267.476000-5.500000L267.476000-5.500000L267.476000-5.500000Q267.476000 0.660000 260.040000 0.660000L260.040000 0.660000L260.040000 0.660000Q252.604000 0.660000 252.604000-5.500000L252.604000-5.500000L252.604000-9.240000L255.684000-9.240000L255.684000-5.324000L255.684000-5.324000Q255.684000-3.740000 256.784000-2.860000L256.784000-2.860000L256.784000-2.860000Q257.884000-1.980000 260.040000-1.980000L260.040000-1.980000L260.040000-1.980000Q262.196000-1.980000 263.296000-2.860000L263.296000-2.860000L263.296000-2.860000Q264.396000-3.740000 264.396000-5.258000L264.396000-5.258000L264.396000-5.258000Q264.396000-6.776000 264.066000-7.678000L264.066000-7.678000L264.066000-7.678000Q263.736000-8.580000 262.724000-9.592000L262.724000-9.592000L254.980000-17.160000L254.980000-17.160000Q253.616000-18.524000 253.110000-19.822000L253.110000-19.822000L253.110000-19.822000Q252.604000-21.120000 252.604000-23.100000L252.604000-23.100000L252.604000-23.100000Q252.604000-26.048000 254.430000-27.654000L254.430000-27.654000L254.430000-27.654000Q256.256000-29.260000 259.952000-29.260000L259.952000-29.260000L259.952000-29.260000Q267.036000-29.260000 267.036000-23.100000L267.036000-23.100000L267.036000-19.360000L263.956000-19.360000L263.956000-23.276000L263.956000-23.276000Q263.956000-24.860000 262.922000-25.740000L262.922000-25.740000L262.922000-25.740000Q261.888000-26.620000 259.820000-26.620000L259.820000-26.620000L259.820000-26.620000Q257.752000-26.620000 256.718000-25.740000L256.718000-25.740000L256.718000-25.740000Q255.684000-24.860000 255.684000-23.320000L255.684000-23.320000L255.684000-23.320000Q255.684000-21.780000 255.992000-20.900000L255.992000-20.900000L255.992000-20.900000Q256.300000-20.020000 257.356000-19.052000L257.356000-19.052000L265.232000-11.484000L265.232000-11.484000Q266.508000-10.076000 266.992000-8.778000L266.992000-8.778000L266.992000-8.778000Q267.476000-7.480000 267.476000-5.500000Z" transform="matrix(1,0,0,1,105.5,146.5)" data-str-tmatrix="1,0,0,1,106.35,146.3" data-str-color="rgb(100.000000%,100.000000%,100.000000%)" data-str-text="Clean Streams" data-str-default_text="Enter Text" data-str-fontsize="44" data-str-font_family="Unica One" data-str-hastextedit="true" data-str-fonticons="true" data-str-bold="false" data-str-italic="false" data-str-data="" data-str-letter_spacing="0" data-str-use_path="false" data-str-txt_dy="0" data-lyt_name="line_1"/>
  </g>
  <g id="surface4">
  </g>
</svg>